solid OpenSCAD_Model
  facet normal 1 -0 0
    outer loop
      vertex 87.5 0 40
      vertex 87.5 40 0
      vertex 87.5 40 40
    endloop
  endfacet
  facet normal 1 0 0
    outer loop
      vertex 87.5 40 0
      vertex 87.5 0 40
      vertex 87.5 0 0
    endloop
  endfacet
  facet normal 0 0 1
    outer loop
      vertex 78.665 37.8568 40
      vertex 87.5 40 40
      vertex 81.1745 40 40
    endloop
  endfacet
  facet normal 0 0 1
    outer loop
      vertex 73.4732 33.8729 40
      vertex 87.5 40 40
      vertex 78.665 37.8568 40
    endloop
  endfacet
  facet normal 0 0 1
    outer loop
      vertex 87.5 40 40
      vertex 73.4732 33.8729 40
      vertex 87.5 0 40
    endloop
  endfacet
  facet normal -0 0 1
    outer loop
      vertex 68.0799 30.1662 40
      vertex 87.5 0 40
      vertex 73.4732 33.8729 40
    endloop
  endfacet
  facet normal -0 0 1
    outer loop
      vertex 62.5 26.7468 40
      vertex 87.5 0 40
      vertex 68.0799 30.1662 40
    endloop
  endfacet
  facet normal -0 0 1
    outer loop
      vertex 56.7488 23.6242 40
      vertex 87.5 0 40
      vertex 62.5 26.7468 40
    endloop
  endfacet
  facet normal -0 0 1
    outer loop
      vertex 50.8421 20.8068 40
      vertex 87.5 0 40
      vertex 56.7488 23.6242 40
    endloop
  endfacet
  facet normal -0 0 1
    outer loop
      vertex 44.796 18.3024 40
      vertex 87.5 0 40
      vertex 50.8421 20.8068 40
    endloop
  endfacet
  facet normal -0 0 1
    outer loop
      vertex 38.6271 16.1179 40
      vertex 87.5 0 40
      vertex 44.796 18.3024 40
    endloop
  endfacet
  facet normal -0 0 1
    outer loop
      vertex 32.3524 14.2593 40
      vertex 87.5 0 40
      vertex 38.6271 16.1179 40
    endloop
  endfacet
  facet normal -0 0 1
    outer loop
      vertex 25.989 12.7315 40
      vertex 87.5 0 40
      vertex 32.3524 14.2593 40
    endloop
  endfacet
  facet normal -0 0 1
    outer loop
      vertex 19.5543 11.539 40
      vertex 87.5 0 40
      vertex 25.989 12.7315 40
    endloop
  endfacet
  facet normal -0 0 1
    outer loop
      vertex 13.0661 10.6848 40
      vertex 87.5 0 40
      vertex 19.5543 11.539 40
    endloop
  endfacet
  facet normal -0 0 1
    outer loop
      vertex 6.54199 10.1713 40
      vertex 87.5 0 40
      vertex 13.0661 10.6848 40
    endloop
  endfacet
  facet normal -0 0 1
    outer loop
      vertex 0 10 40
      vertex 87.5 0 40
      vertex 6.54199 10.1713 40
    endloop
  endfacet
  facet normal 0 0 1
    outer loop
      vertex -87.5 0 40
      vertex 0 10 40
      vertex -6.54199 10.1713 40
    endloop
  endfacet
  facet normal 0 0 1
    outer loop
      vertex -87.5 0 40
      vertex -6.54199 10.1713 40
      vertex -13.0661 10.6848 40
    endloop
  endfacet
  facet normal -0 0 1
    outer loop
      vertex -87.5 40 40
      vertex -78.665 37.8568 40
      vertex -81.1745 40 40
    endloop
  endfacet
  facet normal 0 0 1
    outer loop
      vertex -87.5 40 40
      vertex -73.4732 33.8729 40
      vertex -78.665 37.8568 40
    endloop
  endfacet
  facet normal 0 0 1
    outer loop
      vertex -87.5 0 40
      vertex -73.4732 33.8729 40
      vertex -87.5 40 40
    endloop
  endfacet
  facet normal 0 0 1
    outer loop
      vertex -73.4732 33.8729 40
      vertex -87.5 0 40
      vertex -68.0799 30.1662 40
    endloop
  endfacet
  facet normal 0 0 1
    outer loop
      vertex -68.0799 30.1662 40
      vertex -87.5 0 40
      vertex -62.5 26.7468 40
    endloop
  endfacet
  facet normal 0 0 1
    outer loop
      vertex 0 10 40
      vertex -87.5 0 40
      vertex 87.5 0 40
    endloop
  endfacet
  facet normal 0 0 1
    outer loop
      vertex -19.5543 11.539 40
      vertex -87.5 0 40
      vertex -13.0661 10.6848 40
    endloop
  endfacet
  facet normal 0 0 1
    outer loop
      vertex -25.989 12.7315 40
      vertex -87.5 0 40
      vertex -19.5543 11.539 40
    endloop
  endfacet
  facet normal 0 0 1
    outer loop
      vertex -32.3524 14.2593 40
      vertex -87.5 0 40
      vertex -25.989 12.7315 40
    endloop
  endfacet
  facet normal 0 0 1
    outer loop
      vertex -38.6271 16.1179 40
      vertex -87.5 0 40
      vertex -32.3524 14.2593 40
    endloop
  endfacet
  facet normal 0 0 1
    outer loop
      vertex -44.796 18.3024 40
      vertex -87.5 0 40
      vertex -38.6271 16.1179 40
    endloop
  endfacet
  facet normal 0 0 1
    outer loop
      vertex -50.8421 20.8068 40
      vertex -87.5 0 40
      vertex -44.796 18.3024 40
    endloop
  endfacet
  facet normal 0 0 1
    outer loop
      vertex -56.7488 23.6242 40
      vertex -87.5 0 40
      vertex -50.8421 20.8068 40
    endloop
  endfacet
  facet normal 0 0 1
    outer loop
      vertex -62.5 26.7468 40
      vertex -87.5 0 40
      vertex -56.7488 23.6242 40
    endloop
  endfacet
  facet normal 0 0 -1
    outer loop
      vertex 73.4732 33.8729 0
      vertex 87.5 40 0
      vertex 87.5 0 0
    endloop
  endfacet
  facet normal -0 0 -1
    outer loop
      vertex 87.5 40 0
      vertex 78.665 37.8568 0
      vertex 81.1745 40 0
    endloop
  endfacet
  facet normal 0 0 -1
    outer loop
      vertex 87.5 40 0
      vertex 73.4732 33.8729 0
      vertex 78.665 37.8568 0
    endloop
  endfacet
  facet normal 0 0 -1
    outer loop
      vertex 87.5 0 0
      vertex 68.0799 30.1662 0
      vertex 73.4732 33.8729 0
    endloop
  endfacet
  facet normal 0 0 -1
    outer loop
      vertex 87.5 0 0
      vertex 62.5 26.7468 0
      vertex 68.0799 30.1662 0
    endloop
  endfacet
  facet normal 0 0 -1
    outer loop
      vertex 87.5 0 0
      vertex 56.7488 23.6242 0
      vertex 62.5 26.7468 0
    endloop
  endfacet
  facet normal 0 0 -1
    outer loop
      vertex 87.5 0 0
      vertex 50.8421 20.8068 0
      vertex 56.7488 23.6242 0
    endloop
  endfacet
  facet normal 0 0 -1
    outer loop
      vertex 87.5 0 0
      vertex 44.796 18.3024 0
      vertex 50.8421 20.8068 0
    endloop
  endfacet
  facet normal 0 0 -1
    outer loop
      vertex 87.5 0 0
      vertex 38.6271 16.1179 0
      vertex 44.796 18.3024 0
    endloop
  endfacet
  facet normal 0 0 -1
    outer loop
      vertex 87.5 0 0
      vertex 32.3524 14.2593 0
      vertex 38.6271 16.1179 0
    endloop
  endfacet
  facet normal 0 0 -1
    outer loop
      vertex 87.5 0 0
      vertex 25.989 12.7315 0
      vertex 32.3524 14.2593 0
    endloop
  endfacet
  facet normal 0 0 -1
    outer loop
      vertex 87.5 0 0
      vertex 19.5543 11.539 0
      vertex 25.989 12.7315 0
    endloop
  endfacet
  facet normal 0 0 -1
    outer loop
      vertex 87.5 0 0
      vertex 13.0661 10.6848 0
      vertex 19.5543 11.539 0
    endloop
  endfacet
  facet normal 0 0 -1
    outer loop
      vertex 87.5 0 0
      vertex 6.54199 10.1713 0
      vertex 13.0661 10.6848 0
    endloop
  endfacet
  facet normal 0 0 -1
    outer loop
      vertex 87.5 0 0
      vertex 0 10 0
      vertex 6.54199 10.1713 0
    endloop
  endfacet
  facet normal 0 0 -1
    outer loop
      vertex -87.5 0 0
      vertex 0 10 0
      vertex 87.5 0 0
    endloop
  endfacet
  facet normal -0 0 -1
    outer loop
      vertex 0 10 0
      vertex -87.5 0 0
      vertex -6.54199 10.1713 0
    endloop
  endfacet
  facet normal -0 0 -1
    outer loop
      vertex -6.54199 10.1713 0
      vertex -87.5 0 0
      vertex -13.0661 10.6848 0
    endloop
  endfacet
  facet normal 0 0 -1
    outer loop
      vertex -87.5 0 0
      vertex -19.5543 11.539 0
      vertex -13.0661 10.6848 0
    endloop
  endfacet
  facet normal 0 0 -1
    outer loop
      vertex -87.5 0 0
      vertex -25.989 12.7315 0
      vertex -19.5543 11.539 0
    endloop
  endfacet
  facet normal 0 0 -1
    outer loop
      vertex -87.5 0 0
      vertex -32.3524 14.2593 0
      vertex -25.989 12.7315 0
    endloop
  endfacet
  facet normal 0 0 -1
    outer loop
      vertex -87.5 0 0
      vertex -38.6271 16.1179 0
      vertex -32.3524 14.2593 0
    endloop
  endfacet
  facet normal 0 0 -1
    outer loop
      vertex -87.5 0 0
      vertex -44.796 18.3024 0
      vertex -38.6271 16.1179 0
    endloop
  endfacet
  facet normal 0 0 -1
    outer loop
      vertex -87.5 0 0
      vertex -50.8421 20.8068 0
      vertex -44.796 18.3024 0
    endloop
  endfacet
  facet normal 0 0 -1
    outer loop
      vertex -87.5 0 0
      vertex -56.7488 23.6242 0
      vertex -50.8421 20.8068 0
    endloop
  endfacet
  facet normal 0 0 -1
    outer loop
      vertex -87.5 0 0
      vertex -62.5 26.7468 0
      vertex -56.7488 23.6242 0
    endloop
  endfacet
  facet normal 0 0 -1
    outer loop
      vertex -87.5 0 0
      vertex -68.0799 30.1662 0
      vertex -62.5 26.7468 0
    endloop
  endfacet
  facet normal 0 0 -1
    outer loop
      vertex -87.5 0 0
      vertex -73.4732 33.8729 0
      vertex -68.0799 30.1662 0
    endloop
  endfacet
  facet normal 0 0 -1
    outer loop
      vertex -87.5 40 0
      vertex -73.4732 33.8729 0
      vertex -87.5 0 0
    endloop
  endfacet
  facet normal 0 0 -1
    outer loop
      vertex -73.4732 33.8729 0
      vertex -87.5 40 0
      vertex -78.665 37.8568 0
    endloop
  endfacet
  facet normal 0 0 -1
    outer loop
      vertex -78.665 37.8568 0
      vertex -87.5 40 0
      vertex -81.1745 40 0
    endloop
  endfacet
  facet normal -1 0 0
    outer loop
      vertex -87.5 0 0
      vertex -87.5 40 40
      vertex -87.5 40 0
    endloop
  endfacet
  facet normal -1 -0 0
    outer loop
      vertex -87.5 40 40
      vertex -87.5 0 0
      vertex -87.5 0 40
    endloop
  endfacet
  facet normal 0 1 -0
    outer loop
      vertex -81.1745 40 0
      vertex -87.5 40 40
      vertex -81.1745 40 40
    endloop
  endfacet
  facet normal 0 1 0
    outer loop
      vertex -87.5 40 40
      vertex -81.1745 40 0
      vertex -87.5 40 0
    endloop
  endfacet
  facet normal 0 1 -0
    outer loop
      vertex 87.5 40 0
      vertex 81.1745 40 40
      vertex 87.5 40 40
    endloop
  endfacet
  facet normal 0 1 0
    outer loop
      vertex 81.1745 40 40
      vertex 87.5 40 0
      vertex 81.1745 40 0
    endloop
  endfacet
  facet normal 0 -1 0
    outer loop
      vertex -87.5 0 0
      vertex 87.5 0 40
      vertex -87.5 0 40
    endloop
  endfacet
  facet normal 0 -1 -0
    outer loop
      vertex 87.5 0 40
      vertex -87.5 0 0
      vertex 87.5 0 0
    endloop
  endfacet
  facet normal -0.233457 0.972367 0
    outer loop
      vertex 32.3524 14.2593 0
      vertex 25.989 12.7315 40
      vertex 32.3524 14.2593 40
    endloop
  endfacet
  facet normal -0.233457 0.972367 0
    outer loop
      vertex 25.989 12.7315 40
      vertex 32.3524 14.2593 0
      vertex 25.989 12.7315 0
    endloop
  endfacet
  facet normal 0.233457 0.972367 -0
    outer loop
      vertex -25.989 12.7315 0
      vertex -32.3524 14.2593 40
      vertex -25.989 12.7315 40
    endloop
  endfacet
  facet normal 0.233457 0.972367 0
    outer loop
      vertex -32.3524 14.2593 40
      vertex -25.989 12.7315 0
      vertex -32.3524 14.2593 0
    endloop
  endfacet
  facet normal -0.182221 0.983258 0
    outer loop
      vertex 25.989 12.7315 0
      vertex 19.5543 11.539 40
      vertex 25.989 12.7315 40
    endloop
  endfacet
  facet normal -0.182221 0.983258 0
    outer loop
      vertex 19.5543 11.539 40
      vertex 25.989 12.7315 0
      vertex 19.5543 11.539 0
    endloop
  endfacet
  facet normal -0.130528 0.991445 0
    outer loop
      vertex 19.5543 11.539 0
      vertex 13.0661 10.6848 40
      vertex 19.5543 11.539 40
    endloop
  endfacet
  facet normal -0.130528 0.991445 0
    outer loop
      vertex 13.0661 10.6848 40
      vertex 19.5543 11.539 0
      vertex 13.0661 10.6848 0
    endloop
  endfacet
  facet normal -0.60877 0.793347 0
    outer loop
      vertex 78.665 37.8568 0
      vertex 73.4732 33.8729 40
      vertex 78.665 37.8568 40
    endloop
  endfacet
  facet normal -0.60877 0.793347 0
    outer loop
      vertex 73.4732 33.8729 40
      vertex 78.665 37.8568 0
      vertex 73.4732 33.8729 0
    endloop
  endfacet
  facet normal -0.477153 0.87882 0
    outer loop
      vertex 62.5 26.7468 0
      vertex 56.7488 23.6242 40
      vertex 62.5 26.7468 40
    endloop
  endfacet
  facet normal -0.477153 0.87882 0
    outer loop
      vertex 56.7488 23.6242 40
      vertex 62.5 26.7468 0
      vertex 56.7488 23.6242 0
    endloop
  endfacet
  facet normal 0.0261757 0.999657 -0
    outer loop
      vertex 0 10 0
      vertex -6.54199 10.1713 40
      vertex 0 10 40
    endloop
  endfacet
  facet normal 0.0261757 0.999657 0
    outer loop
      vertex -6.54199 10.1713 40
      vertex 0 10 0
      vertex -6.54199 10.1713 0
    endloop
  endfacet
  facet normal -0.0261757 0.999657 0
    outer loop
      vertex 6.54199 10.1713 0
      vertex 0 10 40
      vertex 6.54199 10.1713 40
    endloop
  endfacet
  facet normal -0.0261757 0.999657 0
    outer loop
      vertex 0 10 40
      vertex 6.54199 10.1713 0
      vertex 0 10 0
    endloop
  endfacet
  facet normal -0.284008 0.958822 0
    outer loop
      vertex 38.6271 16.1179 0
      vertex 32.3524 14.2593 40
      vertex 38.6271 16.1179 40
    endloop
  endfacet
  facet normal -0.284008 0.958822 0
    outer loop
      vertex 32.3524 14.2593 40
      vertex 38.6271 16.1179 0
      vertex 32.3524 14.2593 0
    endloop
  endfacet
  facet normal -0.522502 0.852638 0
    outer loop
      vertex 68.0799 30.1662 0
      vertex 62.5 26.7468 40
      vertex 68.0799 30.1662 40
    endloop
  endfacet
  facet normal -0.522502 0.852638 0
    outer loop
      vertex 62.5 26.7468 40
      vertex 68.0799 30.1662 0
      vertex 62.5 26.7468 0
    endloop
  endfacet
  facet normal -0.382686 0.923878 0
    outer loop
      vertex 50.8421 20.8068 0
      vertex 44.796 18.3024 40
      vertex 50.8421 20.8068 40
    endloop
  endfacet
  facet normal -0.382686 0.923878 0
    outer loop
      vertex 44.796 18.3024 40
      vertex 50.8421 20.8068 0
      vertex 44.796 18.3024 0
    endloop
  endfacet
  facet normal -0.0784654 0.996917 0
    outer loop
      vertex 13.0661 10.6848 0
      vertex 6.54199 10.1713 40
      vertex 13.0661 10.6848 40
    endloop
  endfacet
  facet normal -0.0784654 0.996917 0
    outer loop
      vertex 6.54199 10.1713 40
      vertex 13.0661 10.6848 0
      vertex 6.54199 10.1713 0
    endloop
  endfacet
  facet normal 0.382686 0.923878 -0
    outer loop
      vertex -44.796 18.3024 0
      vertex -50.8421 20.8068 40
      vertex -44.796 18.3024 40
    endloop
  endfacet
  facet normal 0.382686 0.923878 0
    outer loop
      vertex -50.8421 20.8068 40
      vertex -44.796 18.3024 0
      vertex -50.8421 20.8068 0
    endloop
  endfacet
  facet normal -0.566405 0.824127 0
    outer loop
      vertex 73.4732 33.8729 0
      vertex 68.0799 30.1662 40
      vertex 73.4732 33.8729 40
    endloop
  endfacet
  facet normal -0.566405 0.824127 0
    outer loop
      vertex 68.0799 30.1662 40
      vertex 73.4732 33.8729 0
      vertex 68.0799 30.1662 0
    endloop
  endfacet
  facet normal 0.284008 0.958822 -0
    outer loop
      vertex -32.3524 14.2593 0
      vertex -38.6271 16.1179 40
      vertex -32.3524 14.2593 40
    endloop
  endfacet
  facet normal 0.284008 0.958822 0
    outer loop
      vertex -38.6271 16.1179 40
      vertex -32.3524 14.2593 0
      vertex -38.6271 16.1179 0
    endloop
  endfacet
  facet normal -0.333804 0.942643 0
    outer loop
      vertex 44.796 18.3024 0
      vertex 38.6271 16.1179 40
      vertex 44.796 18.3024 40
    endloop
  endfacet
  facet normal -0.333804 0.942643 0
    outer loop
      vertex 38.6271 16.1179 40
      vertex 44.796 18.3024 0
      vertex 38.6271 16.1179 0
    endloop
  endfacet
  facet normal 0.0784654 0.996917 -0
    outer loop
      vertex -6.54199 10.1713 0
      vertex -13.0661 10.6848 40
      vertex -6.54199 10.1713 40
    endloop
  endfacet
  facet normal 0.0784654 0.996917 0
    outer loop
      vertex -13.0661 10.6848 40
      vertex -6.54199 10.1713 0
      vertex -13.0661 10.6848 0
    endloop
  endfacet
  facet normal 0.649428 0.760423 -0
    outer loop
      vertex -78.665 37.8568 0
      vertex -81.1745 40 40
      vertex -78.665 37.8568 40
    endloop
  endfacet
  facet normal 0.649428 0.760423 0
    outer loop
      vertex -81.1745 40 40
      vertex -78.665 37.8568 0
      vertex -81.1745 40 0
    endloop
  endfacet
  facet normal 0.130528 0.991445 -0
    outer loop
      vertex -13.0661 10.6848 0
      vertex -19.5543 11.539 40
      vertex -13.0661 10.6848 40
    endloop
  endfacet
  facet normal 0.130528 0.991445 0
    outer loop
      vertex -19.5543 11.539 40
      vertex -13.0661 10.6848 0
      vertex -19.5543 11.539 0
    endloop
  endfacet
  facet normal 0.182221 0.983258 -0
    outer loop
      vertex -19.5543 11.539 0
      vertex -25.989 12.7315 40
      vertex -19.5543 11.539 40
    endloop
  endfacet
  facet normal 0.182221 0.983258 0
    outer loop
      vertex -25.989 12.7315 40
      vertex -19.5543 11.539 0
      vertex -25.989 12.7315 0
    endloop
  endfacet
  facet normal 0.60877 0.793347 -0
    outer loop
      vertex -73.4732 33.8729 0
      vertex -78.665 37.8568 40
      vertex -73.4732 33.8729 40
    endloop
  endfacet
  facet normal 0.60877 0.793347 0
    outer loop
      vertex -78.665 37.8568 40
      vertex -73.4732 33.8729 0
      vertex -78.665 37.8568 0
    endloop
  endfacet
  facet normal -0.430517 0.902582 0
    outer loop
      vertex 56.7488 23.6242 0
      vertex 50.8421 20.8068 40
      vertex 56.7488 23.6242 40
    endloop
  endfacet
  facet normal -0.430517 0.902582 0
    outer loop
      vertex 50.8421 20.8068 40
      vertex 56.7488 23.6242 0
      vertex 50.8421 20.8068 0
    endloop
  endfacet
  facet normal 0.430517 0.902582 -0
    outer loop
      vertex -50.8421 20.8068 0
      vertex -56.7488 23.6242 40
      vertex -50.8421 20.8068 40
    endloop
  endfacet
  facet normal 0.430517 0.902582 0
    outer loop
      vertex -56.7488 23.6242 40
      vertex -50.8421 20.8068 0
      vertex -56.7488 23.6242 0
    endloop
  endfacet
  facet normal -0.649428 0.760423 0
    outer loop
      vertex 81.1745 40 0
      vertex 78.665 37.8568 40
      vertex 81.1745 40 40
    endloop
  endfacet
  facet normal -0.649428 0.760423 0
    outer loop
      vertex 78.665 37.8568 40
      vertex 81.1745 40 0
      vertex 78.665 37.8568 0
    endloop
  endfacet
  facet normal 0.333804 0.942643 -0
    outer loop
      vertex -38.6271 16.1179 0
      vertex -44.796 18.3024 40
      vertex -38.6271 16.1179 40
    endloop
  endfacet
  facet normal 0.333804 0.942643 0
    outer loop
      vertex -44.796 18.3024 40
      vertex -38.6271 16.1179 0
      vertex -44.796 18.3024 0
    endloop
  endfacet
  facet normal 0.566405 0.824127 -0
    outer loop
      vertex -68.0799 30.1662 0
      vertex -73.4732 33.8729 40
      vertex -68.0799 30.1662 40
    endloop
  endfacet
  facet normal 0.566405 0.824127 0
    outer loop
      vertex -73.4732 33.8729 40
      vertex -68.0799 30.1662 0
      vertex -73.4732 33.8729 0
    endloop
  endfacet
  facet normal 0.477153 0.87882 -0
    outer loop
      vertex -56.7488 23.6242 0
      vertex -62.5 26.7468 40
      vertex -56.7488 23.6242 40
    endloop
  endfacet
  facet normal 0.477153 0.87882 0
    outer loop
      vertex -62.5 26.7468 40
      vertex -56.7488 23.6242 0
      vertex -62.5 26.7468 0
    endloop
  endfacet
  facet normal 0.522502 0.852638 -0
    outer loop
      vertex -62.5 26.7468 0
      vertex -68.0799 30.1662 40
      vertex -62.5 26.7468 40
    endloop
  endfacet
  facet normal 0.522502 0.852638 0
    outer loop
      vertex -68.0799 30.1662 40
      vertex -62.5 26.7468 0
      vertex -68.0799 30.1662 0
    endloop
  endfacet
endsolid OpenSCAD_Model
